<svg xmlns="http://www.w3.org/2000/svg" class="op-diagram" viewBox="0 0 334.21 313" width="334.21" height="313" font-family="Inter Diagram, sans-serif" text-rendering="geometricPrecision"><style>.op-diagram { background: #fff; font-family: "Inter Diagram", Inter, "Helvetica Neue", Arial, sans-serif; }
.op-diagram .outline { fill: #f3f5fa; stroke: #7b8599; stroke-width: 1.2; }
.op-diagram .outline-detail { fill: none; stroke: #7b8599; stroke-width: 1.2; }
.op-diagram .cluster-box { fill: #f7f8fb; stroke: #b3bacb; stroke-width: 1; }
.op-diagram .edge-line { fill: none; stroke: #5f6776; stroke-width: 1.4; }
.op-diagram .stroke-dotted .edge-line { stroke-dasharray: 4 3; }
.op-diagram .stroke-thick .edge-line { stroke-width: 2.8; }
.op-diagram .head-arrow path, .op-diagram .head-circle circle { fill: #5f6776; }
.op-diagram .head-open path, .op-diagram .head-cross path, .op-diagram .head-cardinality path { fill: none; stroke: #5f6776; stroke-width: 1.4; }
.op-diagram .head-ring { fill: #fff; stroke: #5f6776; stroke-width: 1.4; }
.op-diagram .edge-label-box { fill: #fff; }
.op-diagram text { fill: #1f2430; }
.op-diagram .text-caption { fill: #6b7280; }
.op-diagram .text-header { fill: #454c5c; paint-order: stroke; stroke: #f7f8fb; stroke-width: 5px; stroke-linejoin: round; }
.op-diagram .text-edge-label { fill: #3a4150; }
.op-diagram .lifeline { stroke: #9aa2b1; stroke-width: 1; stroke-dasharray: 4 4; }
.op-diagram .divider { stroke: #9aa2b1; stroke-width: 1; stroke-dasharray: 5 4; }
.op-diagram .block .cluster-box { fill: none; stroke: #9aa2b1; }
.op-diagram .activation .outline { fill: #e6e9f2; stroke: #7b8599; }
.op-diagram .note .outline { fill: #fdf6d8; stroke: #cbb971; }
.op-diagram .note .outline-detail { stroke: #cbb971; }
.op-diagram .sequence-number .outline { fill: #5f6776; stroke: none; }
.op-diagram .text-number { fill: #fff; }
.op-diagram .actor-figure { fill: none; stroke: #7b8599; stroke-width: 1.4; }
.op-diagram .icon { color: #6b7280; }
.op-diagram .status-backlog, .op-diagram .status-cancelled { --status: oklch(0.551 0.027 264.364); }
.op-diagram .status-todo { --status: oklch(0.546 0.245 262.881); }
.op-diagram .status-in-progress { --status: oklch(0.666 0.179 58.318); }
.op-diagram .status-in-review, .op-diagram .status-unreadable { --status: oklch(0.637 0.237 25.331); }
.op-diagram .status-done { --status: oklch(0.596 0.145 163.225); }
.op-diagram .node[class*="status-"] .outline { stroke: var(--status); fill: color-mix(in srgb, var(--status) 12%, #fff); }
.op-diagram .cluster[class*="status-"] .cluster-box { stroke: var(--status); fill: color-mix(in srgb, var(--status) 6%, #fff); }
.op-diagram [class*="status-"] .icon { color: var(--status); }
.op-diagram .unresolved .outline { fill: #fff; stroke: #9aa2b1; stroke-dasharray: 4 3; }
</style><g class="edge stroke-solid"><path class="edge-line" d="M51.7 48L51.7 128.5"/><g class="head head-arrow"><path d="M51.7 136.5L47.2 127.5L56.2 127.5Z"/></g></g><g class="edge stroke-solid"><path class="edge-line" d="M45.7 176.5L45.7 236.05"/><g class="head head-arrow"><path d="M45.7 244.05L41.2 235.05L50.2 235.05Z"/></g></g><g class="edge stroke-solid"><path class="edge-line" d="M57.7 176.5L57.7 194Q57.7 202 65.7 202L169.54 202Q177.54 202 177.54 210L177.54 246.5"/><g class="head head-arrow"><path d="M177.54 254.5L173.04 245.5L182.04 245.5Z"/></g></g><g class="edge stroke-solid"><path class="edge-line" d="M95.23 148.5L105.23 148.5Q113.23 148.5 113.23 156.5L113.23 156.5Q113.23 164.5 108.23 164.5L103.23 164.5"/><g class="head head-arrow"><path d="M95.23 164.5L104.23 160L104.23 169Z"/></g></g><g class="edge stroke-solid"><path class="edge-line" d="M95.23 144.5L113.23 144.5Q121.23 144.5 121.23 152.5L121.23 160.5Q121.23 168.5 113.23 168.5L103.23 168.5"/><g class="head head-arrow"><path d="M95.23 168.5L104.23 164L104.23 173Z"/></g></g><g class="node shape-rectangle"><rect class="outline" x="16.63" y="8" width="70.13" height="40" rx="3"/><text class="text-label" x="51.7" y="33.09" font-size="14" font-weight="400" text-anchor="middle">Timer</text></g><g class="node shape-rectangle"><rect class="outline" x="8.16" y="136.5" width="87.06" height="40" rx="3"/><text class="text-label" x="51.7" y="161.59" font-size="14" font-weight="400" text-anchor="middle">Daemon</text></g><g class="node shape-cylinder"><path class="outline" d="M8 251A33.7 7 0 0 0 75.39 251A33.7 7 0 0 0 8 251V298A33.7 7 0 0 0 75.39 298V251"/><text class="text-label" x="41.7" y="283.09" font-size="14" font-weight="400" text-anchor="middle">Store</text></g><g class="node shape-rectangle"><rect class="outline" x="149.09" y="254.5" width="56.91" height="40" rx="3"/><text class="text-label" x="177.54" y="279.59" font-size="14" font-weight="400" text-anchor="middle">Log</text></g><g class="edge-label"><rect class="edge-label-box" x="30.5" y="76" width="42.39" height="21" rx="3"/><text class="text-edge-label" x="51.7" y="90.87" font-size="12" font-weight="400" text-anchor="middle">check</text></g><g class="edge-label"><rect class="edge-label-box" x="125.23" y="125" width="194.98" height="38" rx="3"/><text class="text-edge-label" x="222.72" y="139.87" font-size="12" font-weight="400" text-anchor="middle">wait until idle, replace the binary,</text><text class="text-edge-label" x="222.72" y="156.87" font-size="12" font-weight="400" text-anchor="middle">restart</text></g><g class="edge-label"><rect class="edge-label-box" x="125.23" y="167" width="34.7" height="21" rx="3"/><text class="text-edge-label" x="142.58" y="181.87" font-size="12" font-weight="400" text-anchor="middle">retry</text></g></svg>