<svg xmlns="http://www.w3.org/2000/svg" class="op-diagram" viewBox="0 0 362.2 304" width="362.2" height="304" font-family="Inter Diagram, sans-serif" text-rendering="geometricPrecision"><style>.op-diagram { background: #fff; font-family: "Inter Diagram", Inter, "Helvetica Neue", Arial, sans-serif; }
.op-diagram .outline { fill: #f3f5fa; stroke: #7b8599; stroke-width: 1.2; }
.op-diagram .outline-detail { fill: none; stroke: #7b8599; stroke-width: 1.2; }
.op-diagram .cluster-box { fill: #f7f8fb; stroke: #b3bacb; stroke-width: 1; }
.op-diagram .edge-line { fill: none; stroke: #5f6776; stroke-width: 1.4; }
.op-diagram .stroke-dotted .edge-line { stroke-dasharray: 4 3; }
.op-diagram .stroke-thick .edge-line { stroke-width: 2.8; }
.op-diagram .head-arrow path, .op-diagram .head-circle circle { fill: #5f6776; }
.op-diagram .head-open path, .op-diagram .head-cross path, .op-diagram .head-cardinality path { fill: none; stroke: #5f6776; stroke-width: 1.4; }
.op-diagram .head-ring { fill: #fff; stroke: #5f6776; stroke-width: 1.4; }
.op-diagram .edge-label-box { fill: #fff; }
.op-diagram text { fill: #1f2430; }
.op-diagram .text-caption { fill: #6b7280; }
.op-diagram .text-header { fill: #454c5c; paint-order: stroke; stroke: #f7f8fb; stroke-width: 5px; stroke-linejoin: round; }
.op-diagram .text-edge-label { fill: #3a4150; }
</style><g class="edge stroke-solid"><path class="edge-line" d="M170.63 48L170.63 53.6Q170.63 59.2 162.63 59.2L56.58 59.2Q48.58 59.2 48.58 67.2L48.58 114.67Q48.58 122.67 40.58 122.67L36.29 122.67Q28.29 122.67 28.29 130.67L28.29 152"/><g class="head head-arrow"><path d="M28.29 160L23.79 151L32.79 151Z"/></g></g><g class="edge stroke-solid"><path class="edge-line" d="M174.04 48L174.04 62.4Q174.04 70.4 166.04 70.4L72.58 70.4Q64.58 70.4 64.58 78.4L64.58 248"/><g class="head head-arrow"><path d="M64.58 256L60.08 247L69.08 247Z"/></g></g><g class="edge stroke-solid"><path class="edge-line" d="M177.46 48L177.46 73.6Q177.46 81.6 169.46 81.6L148.87 81.6Q140.87 81.6 140.87 89.6L140.87 114.67Q140.87 122.67 132.87 122.67L108.87 122.67Q100.87 122.67 100.87 130.67L100.87 160"/></g><g class="edge stroke-dotted"><path class="edge-line" d="M180.88 48L180.88 152"/><g class="head head-arrow"><path d="M180.88 160L176.38 151L185.38 151Z"/></g></g><g class="edge stroke-dotted"><path class="edge-line" d="M184.3 48L184.3 84.8Q184.3 92.8 192.3 92.8L193.07 92.8Q201.07 92.8 201.07 100.8L201.07 114.67Q201.07 122.67 209.07 122.67L209.33 122.67Q217.33 122.67 217.33 130.67L217.33 256"/></g><g class="edge stroke-thick"><path class="edge-line" d="M187.72 48L187.72 62.4Q187.72 70.4 195.72 70.4L209.25 70.4Q217.25 70.4 217.25 78.4L217.25 133.33Q217.25 141.33 225.25 141.33L245.63 141.33Q253.63 141.33 253.63 146.67L253.63 152"/><g class="head head-arrow"><path d="M253.63 160L249.13 151L258.13 151Z"/></g></g><g class="node shape-rectangle"><rect class="outline" x="160.94" y="8" width="39.88" height="40" rx="3"/><text class="text-label" x="180.88" y="33.09" font-size="14" font-weight="400" text-anchor="middle">a</text></g><g class="node shape-rectangle"><rect class="outline" x="8" y="160" width="40.58" height="40" rx="3"/><text class="text-label" x="28.29" y="185.09" font-size="14" font-weight="400" text-anchor="middle">b</text></g><g class="node shape-rectangle"><rect class="outline" x="44.58" y="256" width="40" height="40" rx="3"/><text class="text-label" x="64.58" y="281.09" font-size="14" font-weight="400" text-anchor="middle">c</text></g><g class="node shape-rectangle"><rect class="outline" x="80.58" y="160" width="40.58" height="40" rx="3"/><text class="text-label" x="100.87" y="185.09" font-size="14" font-weight="400" text-anchor="middle">d</text></g><g class="node shape-rectangle"><rect class="outline" x="161.16" y="160" width="40.17" height="40" rx="3"/><text class="text-label" x="181.24" y="185.09" font-size="14" font-weight="400" text-anchor="middle">e</text></g><g class="node shape-rectangle"><rect class="outline" x="198.73" y="256" width="37.19" height="40" rx="3"/><text class="text-label" x="217.33" y="281.09" font-size="14" font-weight="400" text-anchor="middle">f</text></g><g class="node shape-rectangle"><rect class="outline" x="233.33" y="160" width="40.59" height="40" rx="3"/><text class="text-label" x="253.63" y="185.09" font-size="14" font-weight="400" text-anchor="middle">g</text></g><g class="node shape-rectangle"><rect class="outline" x="313.92" y="160" width="40.28" height="40" rx="3"/><text class="text-label" x="334.06" y="185.09" font-size="14" font-weight="400" text-anchor="middle">h</text></g></svg>