<svg xmlns="http://www.w3.org/2000/svg" class="op-diagram" viewBox="0 0 1492.02 374" width="1492.02" height="374" font-family="Inter Diagram, sans-serif" text-rendering="geometricPrecision"><style>.op-diagram { background: #fff; font-family: "Inter Diagram", Inter, "Helvetica Neue", Arial, sans-serif; }
.op-diagram .outline { fill: #f3f5fa; stroke: #7b8599; stroke-width: 1.2; }
.op-diagram .outline-detail { fill: none; stroke: #7b8599; stroke-width: 1.2; }
.op-diagram .cluster-box { fill: #f7f8fb; stroke: #b3bacb; stroke-width: 1; }
.op-diagram .edge-line { fill: none; stroke: #5f6776; stroke-width: 1.4; }
.op-diagram .stroke-dotted .edge-line { stroke-dasharray: 4 3; }
.op-diagram .stroke-thick .edge-line { stroke-width: 2.8; }
.op-diagram .head-arrow path, .op-diagram .head-circle circle { fill: #5f6776; }
.op-diagram .head-open path, .op-diagram .head-cross path, .op-diagram .head-cardinality path { fill: none; stroke: #5f6776; stroke-width: 1.4; }
.op-diagram .head-ring { fill: #fff; stroke: #5f6776; stroke-width: 1.4; }
.op-diagram .edge-label-box { fill: #fff; }
.op-diagram text { fill: #1f2430; }
.op-diagram .text-caption { fill: #6b7280; }
.op-diagram .text-header { fill: #454c5c; paint-order: stroke; stroke: #f7f8fb; stroke-width: 5px; stroke-linejoin: round; }
.op-diagram .text-edge-label { fill: #3a4150; }
.op-diagram .lifeline { stroke: #9aa2b1; stroke-width: 1; stroke-dasharray: 4 4; }
.op-diagram .divider { stroke: #9aa2b1; stroke-width: 1; stroke-dasharray: 5 4; }
.op-diagram .block .cluster-box { fill: none; stroke: #9aa2b1; }
.op-diagram .activation .outline { fill: #e6e9f2; stroke: #7b8599; }
.op-diagram .note .outline { fill: #fdf6d8; stroke: #cbb971; }
.op-diagram .note .outline-detail { stroke: #cbb971; }
.op-diagram .sequence-number .outline { fill: #5f6776; stroke: none; }
.op-diagram .text-number { fill: #fff; }
.op-diagram .actor-figure { fill: none; stroke: #7b8599; stroke-width: 1.4; }
.op-diagram .icon { color: #6b7280; }
.op-diagram .status-backlog, .op-diagram .status-cancelled { --status: oklch(0.551 0.027 264.364); }
.op-diagram .status-todo { --status: oklch(0.546 0.245 262.881); }
.op-diagram .status-in-progress { --status: oklch(0.666 0.179 58.318); }
.op-diagram .status-in-review, .op-diagram .status-unreadable { --status: oklch(0.637 0.237 25.331); }
.op-diagram .status-done { --status: oklch(0.596 0.145 163.225); }
.op-diagram .node[class*="status-"] .outline { stroke: var(--status); fill: color-mix(in srgb, var(--status) 12%, #fff); }
.op-diagram .cluster[class*="status-"] .cluster-box { stroke: var(--status); fill: color-mix(in srgb, var(--status) 6%, #fff); }
.op-diagram [class*="status-"] .icon { color: var(--status); }
.op-diagram .unresolved .outline { fill: #fff; stroke: #9aa2b1; stroke-dasharray: 4 3; }
</style><g class="edge stroke-solid"><path class="edge-line" d="M649.22 48L649.22 53Q649.22 58 641.22 58L36.29 58Q28.29 58 28.29 66L28.29 201"/><g class="head head-arrow"><path d="M28.29 209L23.79 200L32.79 200Z"/></g></g><g class="edge stroke-solid"><path class="edge-line" d="M650.63 48L650.63 60Q650.63 68 642.63 68L116.58 68Q108.58 68 108.58 76L108.58 209"/></g><g class="edge stroke-dotted"><path class="edge-line" d="M652.03 48L652.03 70Q652.03 78 644.03 78L196.87 78Q188.87 78 188.87 86L188.87 201"/><g class="head head-arrow"><path d="M188.87 209L184.37 200L193.37 200Z"/></g></g><g class="edge stroke-dotted"><path class="edge-line" d="M653.44 48L653.44 80Q653.44 88 645.44 88L277.24 88Q269.24 88 269.24 96L269.24 209"/></g><g class="edge stroke-thick"><path class="edge-line" d="M654.85 48L654.85 90Q654.85 98 646.85 98L355.92 98Q347.92 98 347.92 106L347.92 201"/><g class="head head-arrow"><path d="M347.92 209L343.42 200L352.42 200Z"/></g></g><g class="edge stroke-thick"><path class="edge-line" d="M656.25 48L656.25 100Q656.25 108 648.25 108L434.81 108Q426.81 108 426.81 116L426.81 209"/></g><g class="edge stroke-solid"><path class="edge-line" d="M659.07 48L659.07 120Q659.07 128 651.07 128L593.09 128Q585.09 128 585.09 136L585.09 201"/><g class="head head-circle"><circle class="head-ring" cx="585.09" cy="205" r="4"/></g></g><g class="edge stroke-solid"><path class="edge-line" d="M660.48 48L660.48 209"/><g class="head head-cross"><path d="M656.98 206.5L663.98 199.5M663.98 206.5L656.98 199.5"/></g></g><g class="edge stroke-solid"><path class="edge-line" d="M661.88 56L661.88 140Q661.88 148 669.88 148L730.02 148Q738.02 148 738.02 156L738.02 201"/><g class="head head-arrow"><path d="M661.88 48L666.38 57L657.38 57Z"/></g><g class="head head-arrow"><path d="M738.02 209L733.52 200L742.52 200Z"/></g></g><g class="edge stroke-solid"><path class="edge-line" d="M663.29 56L663.29 130Q663.29 138 671.29 138L807.55 138Q815.55 138 815.55 146L815.55 201"/><g class="head head-circle"><circle class="head-ring" cx="663.29" cy="52" r="4"/></g><g class="head head-circle"><circle class="head-ring" cx="815.55" cy="205" r="4"/></g></g><g class="edge stroke-solid"><path class="edge-line" d="M664.7 48L664.7 100Q664.7 108 672.7 108L887.38 108Q895.38 108 895.38 116L895.38 209"/><g class="head head-cross"><path d="M668.2 50.5L661.2 57.5M661.2 50.5L668.2 57.5"/></g><g class="head head-cross"><path d="M891.88 206.5L898.88 199.5M898.88 206.5L891.88 199.5"/></g></g><g class="edge stroke-dotted"><path class="edge-line" d="M666.11 56L666.11 90Q666.11 98 674.11 98L969.66 98Q977.66 98 977.66 106L977.66 201"/><g class="head head-arrow"><path d="M666.11 48L670.61 57L661.61 57Z"/></g><g class="head head-arrow"><path d="M977.66 209L973.16 200L982.16 200Z"/></g></g><g class="edge stroke-thick"><path class="edge-line" d="M667.51 56L667.51 80Q667.51 88 675.51 88L1054.27 88Q1062.27 88 1062.27 96L1062.27 201"/><g class="head head-arrow"><path d="M667.51 48L672.01 57L663.01 57Z"/></g><g class="head head-arrow"><path d="M1062.27 209L1057.77 200L1066.77 200Z"/></g></g><g class="edge stroke-solid"><path class="edge-line" d="M668.92 48L668.92 70Q668.92 78 676.92 78L1106.54 78Q1114.54 78 1114.54 86L1114.54 181Q1114.54 189 1122.54 189L1139.02 189Q1147.02 189 1147.02 195L1147.02 201"/><g class="head head-arrow"><path d="M1147.02 209L1142.52 200L1151.52 200Z"/></g></g><g class="edge stroke-solid"><path class="edge-line" d="M670.33 48L670.33 60Q670.33 68 678.33 68L1219.6 68Q1227.6 68 1227.6 76L1227.6 201"/><g class="head head-arrow"><path d="M1227.6 209L1223.1 200L1232.1 200Z"/></g></g><g class="edge stroke-solid"><path class="edge-line" d="M671.74 48L671.74 53Q671.74 58 679.74 58L1298.19 58Q1306.19 58 1306.19 66L1306.19 201"/><g class="head head-arrow"><path d="M1306.19 209L1301.69 200L1310.69 200Z"/></g></g><g class="edge stroke-solid"><path class="edge-line" d="M1306.19 249L1306.19 318"/><g class="head head-arrow"><path d="M1306.19 326L1301.69 317L1310.69 317Z"/></g></g><g class="edge stroke-solid"><path class="edge-line" d="M1342.5 48L1342.5 60Q1342.5 68 1350.5 68L1352.43 68Q1360.43 68 1360.43 76L1360.43 181Q1360.43 189 1368.43 189L1370.36 189Q1378.36 189 1378.36 195L1378.36 201"/><g class="head head-arrow"><path d="M1378.36 209L1373.86 200L1382.86 200Z"/></g></g><g class="edge stroke-solid"><path class="edge-line" d="M1354.46 48L1354.46 53Q1354.46 58 1362.46 58L1383.21 58Q1391.21 58 1391.21 66L1391.21 191Q1391.21 199 1399.21 199L1450.1 199Q1458.1 199 1458.1 200L1458.1 201"/><g class="head head-arrow"><path d="M1458.1 209L1453.6 200L1462.6 200Z"/></g></g><g class="edge stroke-solid"><path class="edge-line" d="M1424.16 48L1424.16 53Q1424.16 58 1416.16 58L1415.21 58Q1407.21 58 1407.21 66L1407.21 181Q1407.21 189 1399.21 189L1398.26 189Q1390.26 189 1390.26 195L1390.26 201"/><g class="head head-arrow"><path d="M1390.26 209L1385.76 200L1394.76 200Z"/></g></g><g class="edge stroke-solid"><path class="edge-line" d="M1436.16 48L1436.16 53Q1436.16 58 1444.16 58L1445.11 58Q1453.11 58 1453.11 66L1453.11 181Q1453.11 189 1461.11 189L1462.06 189Q1470.06 189 1470.06 195L1470.06 201"/><g class="head head-arrow"><path d="M1470.06 209L1465.56 200L1474.56 200Z"/></g></g><g class="node shape-rectangle"><rect class="outline" x="640.54" y="8" width="39.88" height="40" rx="3"/><text class="text-label" x="660.48" y="33.09" font-size="14" font-weight="400" text-anchor="middle">a</text></g><g class="node shape-rectangle"><rect class="outline" x="8" y="209" width="40.58" height="40" rx="3"/><text class="text-label" x="28.29" y="234.09" font-size="14" font-weight="400" text-anchor="middle">b</text></g><g class="node shape-rectangle"><rect class="outline" x="88.58" y="209" width="40" height="40" rx="3"/><text class="text-label" x="108.58" y="234.09" font-size="14" font-weight="400" text-anchor="middle">c</text></g><g class="node shape-rectangle"><rect class="outline" x="168.58" y="209" width="40.58" height="40" rx="3"/><text class="text-label" x="188.87" y="234.09" font-size="14" font-weight="400" text-anchor="middle">d</text></g><g class="node shape-rectangle"><rect class="outline" x="249.16" y="209" width="40.17" height="40" rx="3"/><text class="text-label" x="269.24" y="234.09" font-size="14" font-weight="400" text-anchor="middle">e</text></g><g class="node shape-rectangle"><rect class="outline" x="329.33" y="209" width="37.19" height="40" rx="3"/><text class="text-label" x="347.92" y="234.09" font-size="14" font-weight="400" text-anchor="middle">f</text></g><g class="node shape-rectangle"><rect class="outline" x="406.52" y="209" width="40.59" height="40" rx="3"/><text class="text-label" x="426.81" y="234.09" font-size="14" font-weight="400" text-anchor="middle">g</text></g><g class="node shape-rectangle"><rect class="outline" x="487.11" y="209" width="40.28" height="40" rx="3"/><text class="text-label" x="507.25" y="234.09" font-size="14" font-weight="400" text-anchor="middle">h</text></g><g class="node shape-rectangle"><rect class="outline" x="567.39" y="209" width="35.39" height="40" rx="3"/><text class="text-label" x="585.09" y="234.09" font-size="14" font-weight="400" text-anchor="middle">i</text></g><g class="node shape-rectangle"><rect class="outline" x="642.78" y="209" width="35.39" height="40" rx="3"/><text class="text-label" x="660.48" y="234.09" font-size="14" font-weight="400" text-anchor="middle">j</text></g><g class="node shape-rectangle"><rect class="outline" x="718.17" y="209" width="39.69" height="40" rx="3"/><text class="text-label" x="738.02" y="234.09" font-size="14" font-weight="400" text-anchor="middle">k</text></g><g class="node shape-rectangle"><rect class="outline" x="797.86" y="209" width="35.39" height="40" rx="3"/><text class="text-label" x="815.55" y="234.09" font-size="14" font-weight="400" text-anchor="middle">l</text></g><g class="node shape-rectangle"><rect class="outline" x="873.25" y="209" width="44.27" height="40" rx="3"/><text class="text-label" x="895.38" y="234.09" font-size="14" font-weight="400" text-anchor="middle">m</text></g><g class="node shape-rectangle"><rect class="outline" x="957.52" y="209" width="40.28" height="40" rx="3"/><text class="text-label" x="977.66" y="234.09" font-size="14" font-weight="400" text-anchor="middle">n</text></g><g class="node shape-rectangle"><rect class="outline" x="1037.8" y="209" width="48.94" height="40" rx="3"/><text class="text-label" x="1062.27" y="234.09" font-size="14" font-weight="400" text-anchor="middle">o2</text></g><g class="node shape-rectangle"><rect class="outline" x="1126.73" y="209" width="40.58" height="40" rx="3"/><text class="text-label" x="1147.02" y="234.09" font-size="14" font-weight="400" text-anchor="middle">p</text></g><g class="node shape-rectangle"><rect class="outline" x="1207.31" y="209" width="40.58" height="40" rx="3"/><text class="text-label" x="1227.6" y="234.09" font-size="14" font-weight="400" text-anchor="middle">q</text></g><g class="node shape-rectangle"><rect class="outline" x="1287.89" y="209" width="36.59" height="40" rx="3"/><text class="text-label" x="1306.19" y="234.09" font-size="14" font-weight="400" text-anchor="middle">t</text></g><g class="node shape-rectangle"><rect class="outline" x="1286.05" y="326" width="40.28" height="40" rx="3"/><text class="text-label" x="1306.19" y="351.09" font-size="14" font-weight="400" text-anchor="middle">u</text></g><g class="node shape-rectangle"><rect class="outline" x="1328.55" y="8" width="39.88" height="40" rx="3"/><text class="text-label" x="1348.48" y="33.09" font-size="14" font-weight="400" text-anchor="middle">v</text></g><g class="node shape-rectangle"><rect class="outline" x="1408.42" y="8" width="43.47" height="40" rx="3"/><text class="text-label" x="1430.16" y="33.09" font-size="14" font-weight="400" text-anchor="middle">w</text></g><g class="node shape-rectangle"><rect class="outline" x="1364.48" y="209" width="39.66" height="40" rx="3"/><text class="text-label" x="1384.31" y="234.09" font-size="14" font-weight="400" text-anchor="middle">x</text></g><g class="node shape-rectangle"><rect class="outline" x="1444.14" y="209" width="39.88" height="40" rx="3"/><text class="text-label" x="1464.08" y="234.09" font-size="14" font-weight="400" text-anchor="middle">y</text></g><g class="edge-label"><rect class="edge-label-box" x="1083.1" y="158" width="62.88" height="21" rx="3"/><text class="text-edge-label" x="1114.54" y="172.87" font-size="12" font-weight="400" text-anchor="middle">pipe label</text></g><g class="edge-label"><rect class="edge-label-box" x="1185.98" y="158" width="83.25" height="21" rx="3"/><text class="text-edge-label" x="1227.6" y="172.87" font-size="12" font-weight="400" text-anchor="middle">quoted | pipe</text></g><g class="edge-label"><rect class="edge-label-box" x="1289.63" y="277" width="33.11" height="21" rx="3"/><text class="text-edge-label" x="1306.19" y="291.87" font-size="12" font-weight="400" text-anchor="middle">then</text></g></svg>