<svg xmlns="http://www.w3.org/2000/svg" class="op-diagram" viewBox="0 0 1492.02 444" width="1492.02" height="444" font-family="Inter Diagram, sans-serif" text-rendering="geometricPrecision"><style>.op-diagram { background: #fff; font-family: "Inter Diagram", Inter, "Helvetica Neue", Arial, sans-serif; }
.op-diagram .outline { fill: #f3f5fa; stroke: #7b8599; stroke-width: 1.2; }
.op-diagram .outline-detail { fill: none; stroke: #7b8599; stroke-width: 1.2; }
.op-diagram .cluster-box { fill: #f7f8fb; stroke: #b3bacb; stroke-width: 1; }
.op-diagram .edge-line { fill: none; stroke: #5f6776; stroke-width: 1.4; }
.op-diagram .stroke-dotted .edge-line { stroke-dasharray: 4 3; }
.op-diagram .stroke-thick .edge-line { stroke-width: 2.8; }
.op-diagram .head-arrow path, .op-diagram .head-circle circle { fill: #5f6776; }
.op-diagram .head-open path, .op-diagram .head-cross path, .op-diagram .head-cardinality path { fill: none; stroke: #5f6776; stroke-width: 1.4; }
.op-diagram .head-ring { fill: #fff; stroke: #5f6776; stroke-width: 1.4; }
.op-diagram .edge-label-box { fill: #fff; }
.op-diagram text { fill: #1f2430; }
.op-diagram .text-caption { fill: #6b7280; }
.op-diagram .text-header { fill: #454c5c; paint-order: stroke; stroke: #f7f8fb; stroke-width: 5px; stroke-linejoin: round; }
.op-diagram .text-edge-label { fill: #3a4150; }
</style><g class="edge stroke-solid"><path class="edge-line" d="M629.47 48L629.47 53Q629.47 58 621.47 58L342.51 58Q334.51 58 334.51 66L334.51 191Q334.51 199 326.51 199L36.29 199Q28.29 199 28.29 207L28.29 271"/><g class="head head-arrow"><path d="M28.29 279L23.79 270L32.79 270Z"/></g></g><g class="edge stroke-solid"><path class="edge-line" d="M630.88 48L630.88 60Q630.88 68 622.88 68L382.65 68Q374.65 68 374.65 76L374.65 201Q374.65 209 366.65 209L116.58 209Q108.58 209 108.58 217L108.58 279"/></g><g class="edge stroke-dotted"><path class="edge-line" d="M632.29 48L632.29 70Q632.29 78 624.29 78L422.8 78Q414.8 78 414.8 86L414.8 211Q414.8 219 406.8 219L196.87 219Q188.87 219 188.87 227L188.87 271"/><g class="head head-arrow"><path d="M188.87 279L184.37 270L193.37 270Z"/></g></g><g class="edge stroke-dotted"><path class="edge-line" d="M633.69 48L633.69 80Q633.69 88 625.69 88L462.99 88Q454.99 88 454.99 96L454.99 221Q454.99 229 446.99 229L277.24 229Q269.24 229 269.24 237L269.24 279"/></g><g class="edge stroke-thick"><path class="edge-line" d="M635.1 48L635.1 90Q635.1 98 627.1 98L502.33 98Q494.33 98 494.33 106L494.33 231Q494.33 239 486.33 239L355.92 239Q347.92 239 347.92 247L347.92 271"/><g class="head head-arrow"><path d="M347.92 279L343.42 270L352.42 270Z"/></g></g><g class="edge stroke-thick"><path class="edge-line" d="M636.51 48L636.51 100Q636.51 108 628.51 108L541.77 108Q533.77 108 533.77 116L533.77 241Q533.77 249 525.77 249L434.81 249Q426.81 249 426.81 257L426.81 279"/></g><g class="edge stroke-solid"><path class="edge-line" d="M639.32 48L639.32 120Q639.32 128 631.32 128L620.91 128Q612.91 128 612.91 136L612.91 191Q612.91 199 604.91 199L593.09 199Q585.09 199 585.09 207L585.09 271"/><g class="head head-circle"><circle class="head-ring" cx="585.09" cy="275" r="4"/></g></g><g class="edge stroke-solid"><path class="edge-line" d="M640.73 48L640.73 150Q640.73 158 645.67 158L645.67 158Q650.6 158 650.6 166L650.6 191Q650.6 199 655.54 199L655.54 199Q660.48 199 660.48 207L660.48 279"/><g class="head head-cross"><path d="M656.98 276.5L663.98 269.5M663.98 276.5L656.98 269.5"/></g></g><g class="edge stroke-solid"><path class="edge-line" d="M642.14 56L642.14 140Q642.14 148 650.14 148L681.37 148Q689.37 148 689.37 156L689.37 261Q689.37 269 697.37 269L730.02 269Q738.02 269 738.02 270L738.02 271"/><g class="head head-arrow"><path d="M642.14 48L646.64 57L637.64 57Z"/></g><g class="head head-arrow"><path d="M738.02 279L733.52 270L742.52 270Z"/></g></g><g class="edge stroke-solid"><path class="edge-line" d="M643.55 56L643.55 130Q643.55 138 651.55 138L699.33 138Q707.33 138 707.33 146L707.33 251Q707.33 259 715.33 259L807.55 259Q815.55 259 815.55 265L815.55 271"/><g class="head head-circle"><circle class="head-ring" cx="643.55" cy="52" r="4"/></g><g class="head head-circle"><circle class="head-ring" cx="815.55" cy="275" r="4"/></g></g><g class="edge stroke-solid"><path class="edge-line" d="M644.95 48L644.95 100Q644.95 108 652.95 108L715.33 108Q723.33 108 723.33 116L723.33 241Q723.33 249 731.33 249L887.38 249Q895.38 249 895.38 257L895.38 279"/><g class="head head-cross"><path d="M648.45 50.5L641.45 57.5M641.45 50.5L648.45 57.5"/></g><g class="head head-cross"><path d="M891.88 276.5L898.88 269.5M898.88 276.5L891.88 269.5"/></g></g><g class="edge stroke-dotted"><path class="edge-line" d="M646.36 56L646.36 90Q646.36 98 654.36 98L731.33 98Q739.33 98 739.33 106L739.33 231Q739.33 239 747.33 239L969.66 239Q977.66 239 977.66 247L977.66 271"/><g class="head head-arrow"><path d="M646.36 48L650.86 57L641.86 57Z"/></g><g class="head head-arrow"><path d="M977.66 279L973.16 270L982.16 270Z"/></g></g><g class="edge stroke-thick"><path class="edge-line" d="M647.77 56L647.77 80Q647.77 88 655.77 88L747.33 88Q755.33 88 755.33 96L755.33 221Q755.33 229 763.33 229L1054.27 229Q1062.27 229 1062.27 237L1062.27 271"/><g class="head head-arrow"><path d="M647.77 48L652.27 57L643.27 57Z"/></g><g class="head head-arrow"><path d="M1062.27 279L1057.77 270L1066.77 270Z"/></g></g><g class="edge stroke-solid"><path class="edge-line" d="M649.18 48L649.18 70Q649.18 78 657.18 78L794.77 78Q802.77 78 802.77 86L802.77 211Q802.77 219 810.77 219L1139.02 219Q1147.02 219 1147.02 227L1147.02 271"/><g class="head head-arrow"><path d="M1147.02 279L1142.52 270L1151.52 270Z"/></g></g><g class="edge stroke-solid"><path class="edge-line" d="M650.58 48L650.58 60Q650.58 68 658.58 68L907.83 68Q915.83 68 915.83 76L915.83 201Q915.83 209 923.83 209L1219.6 209Q1227.6 209 1227.6 217L1227.6 271"/><g class="head head-arrow"><path d="M1227.6 279L1223.1 270L1232.1 270Z"/></g></g><g class="edge stroke-solid"><path class="edge-line" d="M651.99 48L651.99 53Q651.99 58 659.99 58L965.46 58Q973.46 58 973.46 66L973.46 191Q973.46 199 981.46 199L1298.19 199Q1306.19 199 1306.19 207L1306.19 271"/><g class="head head-arrow"><path d="M1306.19 279L1301.69 270L1310.69 270Z"/></g></g><g class="edge stroke-solid"><path class="edge-line" d="M1306.19 319L1306.19 388"/><g class="head head-arrow"><path d="M1306.19 396L1301.69 387L1310.69 387Z"/></g></g><g class="edge stroke-solid"><path class="edge-line" d="M1336.54 48L1336.54 60Q1336.54 68 1344.54 68L1355.42 68Q1363.42 68 1363.42 76L1363.42 191Q1363.42 199 1370.89 199L1370.89 199Q1378.36 199 1378.36 207L1378.36 271"/><g class="head head-arrow"><path d="M1378.36 279L1373.86 270L1382.86 270Z"/></g></g><g class="edge stroke-solid"><path class="edge-line" d="M1348.5 48L1348.5 53Q1348.5 58 1356.5 58L1380.25 58Q1388.25 58 1388.25 66L1388.25 201Q1388.25 209 1396.25 209L1450.1 209Q1458.1 209 1458.1 217L1458.1 271"/><g class="head head-arrow"><path d="M1458.1 279L1453.6 270L1462.6 270Z"/></g></g><g class="edge stroke-solid"><path class="edge-line" d="M1418.2 48L1418.2 53Q1418.2 58 1411.22 58L1411.22 58Q1404.25 58 1404.25 66L1404.25 211Q1404.25 219 1397.26 219L1397.26 219Q1390.26 219 1390.26 227L1390.26 271"/><g class="head head-arrow"><path d="M1390.26 279L1385.76 270L1394.76 270Z"/></g></g><g class="edge stroke-solid"><path class="edge-line" d="M1430.2 48L1430.2 53Q1430.2 58 1437.17 58L1437.17 58Q1444.14 58 1444.14 66L1444.14 191Q1444.14 199 1452.14 199L1462.06 199Q1470.06 199 1470.06 207L1470.06 271"/><g class="head head-arrow"><path d="M1470.06 279L1465.56 270L1474.56 270Z"/></g></g><g class="node shape-rectangle"><rect class="outline" x="620.79" y="8" width="39.88" height="40" rx="3"/><text class="text-label" x="640.73" y="33.09" font-size="14" font-weight="400" text-anchor="middle">a</text></g><g class="node shape-rectangle"><rect class="outline" x="8" y="279" width="40.58" height="40" rx="3"/><text class="text-label" x="28.29" y="304.09" font-size="14" font-weight="400" text-anchor="middle">b</text></g><g class="node shape-rectangle"><rect class="outline" x="88.58" y="279" width="40" height="40" rx="3"/><text class="text-label" x="108.58" y="304.09" font-size="14" font-weight="400" text-anchor="middle">c</text></g><g class="node shape-rectangle"><rect class="outline" x="168.58" y="279" width="40.58" height="40" rx="3"/><text class="text-label" x="188.87" y="304.09" font-size="14" font-weight="400" text-anchor="middle">d</text></g><g class="node shape-rectangle"><rect class="outline" x="249.16" y="279" width="40.17" height="40" rx="3"/><text class="text-label" x="269.24" y="304.09" font-size="14" font-weight="400" text-anchor="middle">e</text></g><g class="node shape-rectangle"><rect class="outline" x="329.33" y="279" width="37.19" height="40" rx="3"/><text class="text-label" x="347.92" y="304.09" font-size="14" font-weight="400" text-anchor="middle">f</text></g><g class="node shape-rectangle"><rect class="outline" x="406.52" y="279" width="40.59" height="40" rx="3"/><text class="text-label" x="426.81" y="304.09" font-size="14" font-weight="400" text-anchor="middle">g</text></g><g class="node shape-rectangle"><rect class="outline" x="487.11" y="279" width="40.28" height="40" rx="3"/><text class="text-label" x="507.25" y="304.09" font-size="14" font-weight="400" text-anchor="middle">h</text></g><g class="node shape-rectangle"><rect class="outline" x="567.39" y="279" width="35.39" height="40" rx="3"/><text class="text-label" x="585.09" y="304.09" font-size="14" font-weight="400" text-anchor="middle">i</text></g><g class="node shape-rectangle"><rect class="outline" x="642.78" y="279" width="35.39" height="40" rx="3"/><text class="text-label" x="660.48" y="304.09" font-size="14" font-weight="400" text-anchor="middle">j</text></g><g class="node shape-rectangle"><rect class="outline" x="718.17" y="279" width="39.69" height="40" rx="3"/><text class="text-label" x="738.02" y="304.09" font-size="14" font-weight="400" text-anchor="middle">k</text></g><g class="node shape-rectangle"><rect class="outline" x="797.86" y="279" width="35.39" height="40" rx="3"/><text class="text-label" x="815.55" y="304.09" font-size="14" font-weight="400" text-anchor="middle">l</text></g><g class="node shape-rectangle"><rect class="outline" x="873.25" y="279" width="44.27" height="40" rx="3"/><text class="text-label" x="895.38" y="304.09" font-size="14" font-weight="400" text-anchor="middle">m</text></g><g class="node shape-rectangle"><rect class="outline" x="957.52" y="279" width="40.28" height="40" rx="3"/><text class="text-label" x="977.66" y="304.09" font-size="14" font-weight="400" text-anchor="middle">n</text></g><g class="node shape-rectangle"><rect class="outline" x="1037.8" y="279" width="48.94" height="40" rx="3"/><text class="text-label" x="1062.27" y="304.09" font-size="14" font-weight="400" text-anchor="middle">o2</text></g><g class="node shape-rectangle"><rect class="outline" x="1126.73" y="279" width="40.58" height="40" rx="3"/><text class="text-label" x="1147.02" y="304.09" font-size="14" font-weight="400" text-anchor="middle">p</text></g><g class="node shape-rectangle"><rect class="outline" x="1207.31" y="279" width="40.58" height="40" rx="3"/><text class="text-label" x="1227.6" y="304.09" font-size="14" font-weight="400" text-anchor="middle">q</text></g><g class="node shape-rectangle"><rect class="outline" x="1287.89" y="279" width="36.59" height="40" rx="3"/><text class="text-label" x="1306.19" y="304.09" font-size="14" font-weight="400" text-anchor="middle">t</text></g><g class="node shape-rectangle"><rect class="outline" x="1286.05" y="396" width="40.28" height="40" rx="3"/><text class="text-label" x="1306.19" y="421.09" font-size="14" font-weight="400" text-anchor="middle">u</text></g><g class="node shape-rectangle"><rect class="outline" x="1322.59" y="8" width="39.88" height="40" rx="3"/><text class="text-label" x="1342.52" y="33.09" font-size="14" font-weight="400" text-anchor="middle">v</text></g><g class="node shape-rectangle"><rect class="outline" x="1402.46" y="8" width="43.47" height="40" rx="3"/><text class="text-label" x="1424.2" y="33.09" font-size="14" font-weight="400" text-anchor="middle">w</text></g><g class="node shape-rectangle"><rect class="outline" x="1364.48" y="279" width="39.66" height="40" rx="3"/><text class="text-label" x="1384.31" y="304.09" font-size="14" font-weight="400" text-anchor="middle">x</text></g><g class="node shape-rectangle"><rect class="outline" x="1444.14" y="279" width="39.88" height="40" rx="3"/><text class="text-label" x="1464.08" y="304.09" font-size="14" font-weight="400" text-anchor="middle">y</text></g><g class="edge-label"><rect class="edge-label-box" x="771.33" y="168" width="62.88" height="21" rx="3"/><text class="text-edge-label" x="802.77" y="182.87" font-size="12" font-weight="400" text-anchor="middle">pipe label</text></g><g class="edge-label"><rect class="edge-label-box" x="874.21" y="168" width="83.25" height="21" rx="3"/><text class="text-edge-label" x="915.83" y="182.87" font-size="12" font-weight="400" text-anchor="middle">quoted | pipe</text></g><g class="edge-label"><rect class="edge-label-box" x="1289.63" y="347" width="33.11" height="21" rx="3"/><text class="text-edge-label" x="1306.19" y="361.87" font-size="12" font-weight="400" text-anchor="middle">then</text></g></svg>