<svg xmlns="http://www.w3.org/2000/svg" class="op-diagram" viewBox="0 0 569.5 417" width="569.5" height="417" font-family="Inter Diagram, sans-serif" text-rendering="geometricPrecision"><style>.op-diagram { background: #fff; font-family: "Inter Diagram", Inter, "Helvetica Neue", Arial, sans-serif; }
.op-diagram .outline { fill: #f3f5fa; stroke: #7b8599; stroke-width: 1.2; }
.op-diagram .outline-detail { fill: none; stroke: #7b8599; stroke-width: 1.2; }
.op-diagram .cluster-box { fill: #f7f8fb; stroke: #b3bacb; stroke-width: 1; }
.op-diagram .edge-line { fill: none; stroke: #5f6776; stroke-width: 1.4; }
.op-diagram .stroke-dotted .edge-line { stroke-dasharray: 4 3; }
.op-diagram .stroke-thick .edge-line { stroke-width: 2.8; }
.op-diagram .head-arrow path, .op-diagram .head-circle circle { fill: #5f6776; }
.op-diagram .head-open path, .op-diagram .head-cross path, .op-diagram .head-cardinality path { fill: none; stroke: #5f6776; stroke-width: 1.4; }
.op-diagram .head-ring { fill: #fff; stroke: #5f6776; stroke-width: 1.4; }
.op-diagram .edge-label-box { fill: #fff; }
.op-diagram text { fill: #1f2430; }
.op-diagram .text-caption { fill: #6b7280; }
.op-diagram .text-header { fill: #454c5c; paint-order: stroke; stroke: #f7f8fb; stroke-width: 5px; stroke-linejoin: round; }
.op-diagram .text-edge-label { fill: #3a4150; }
</style><g class="cluster"><rect class="cluster-box" x="8" y="8" width="229.58" height="88" rx="6"/></g><g class="edge stroke-solid"><path class="edge-line" d="M225.58 96L225.58 151Q225.58 159 231.18 159L231.18 159Q236.77 159 236.77 167L236.77 185.5"/><g class="head head-arrow"><path d="M236.77 193.5L232.27 184.5L241.27 184.5Z"/></g></g><g class="edge stroke-solid"><path class="edge-line" d="M236.77 233.5L236.77 260Q236.77 268 242.37 268L242.37 268Q247.97 268 247.97 276L247.97 326Q247.97 334 255.97 334L331.89 334Q339.89 334 339.89 337.01L339.89 340.02"/><g class="head head-arrow"><path d="M339.89 348.02L335.39 339.02L344.39 339.02Z"/></g></g><g class="edge stroke-solid"><path class="edge-line" d="M452.04 254L452.04 261Q452.04 268 447.93 268L447.93 268Q443.81 268 443.81 276L443.81 326Q443.81 334 435.81 334L359.89 334Q351.89 334 351.89 337.01L351.89 340.02"/><g class="head head-arrow"><path d="M351.89 348.02L347.39 339.02L356.39 339.02Z"/></g></g><g class="node shape-rectangle"><rect class="outline" x="20" y="44" width="189.58" height="40" rx="3"/><text class="text-label" x="114.79" y="69.09" font-size="14" font-weight="400" text-anchor="middle">{ id: 5432, text: [...], ... }</text></g><g class="node shape-rectangle"><rect class="outline" x="170.97" y="193.5" width="131.61" height="40" rx="3"/><text class="text-label" x="236.77" y="218.59" font-size="14" font-weight="400" text-anchor="middle">conquer db init</text></g><g class="node shape-cylinder"><path class="outline" d="M263.84 355A82.05 7 0 0 0 427.95 355A82.05 7 0 0 0 263.84 355V402A82.05 7 0 0 0 427.95 402V355"/><text class="text-label" x="345.89" y="387.09" font-size="14" font-weight="400" text-anchor="middle">questions.id = 5432</text></g><g class="node shape-cylinder"><path class="outline" d="M342.58 180A109.46 7 0 0 0 561.5 180A109.46 7 0 0 0 342.58 180V247A109.46 7 0 0 0 561.5 247V180"/><text class="text-label" x="452.04" y="212.09" font-size="14" font-weight="400" text-anchor="middle">commands, daily_questions,</text><text class="text-label" x="452.04" y="232.09" font-size="14" font-weight="400" text-anchor="middle">question_reports</text></g><g class="cluster-header"><text class="text-header" x="20" y="33.73" font-size="13" font-weight="600" text-anchor="start">bank/&lt;tag&gt;/choice.json</text></g><g class="edge-label"><rect class="edge-label-box" x="188.09" y="124" width="74.97" height="21" rx="3"/><text class="text-edge-label" x="225.58" y="138.87" font-size="12" font-weight="400" text-anchor="middle">reads the id</text></g><g class="edge-label"><rect class="edge-label-box" x="188.09" y="290.5" width="119.75" height="21" rx="3"/><text class="text-edge-label" x="247.97" y="305.37" font-size="12" font-weight="400" text-anchor="middle">writes it unchanged</text></g><g class="edge-label"><rect class="edge-label-box" x="347.84" y="282" width="191.94" height="38" rx="3"/><text class="text-edge-label" x="443.81" y="296.87" font-size="12" font-weight="400" text-anchor="middle">refer to 5432, before and after a</text><text class="text-edge-label" x="443.81" y="313.87" font-size="12" font-weight="400" text-anchor="middle">rebuild</text></g></svg>